<svg id="레이어_1" data-name="레이어 1" xmlns="http://www.w3.org/2000/svg" viewBox="0 0 908.54 476.02"><defs><style>.cls-1{fill:#c79761;}.cls-2,.cls-4{fill:#fff;}.cls-3{fill:#5f4036;}.cls-4,.cls-5,.cls-6{stroke:#fff;stroke-miterlimit:10;}.cls-4{stroke-width:5px;}.cls-5,.cls-6{fill:none;stroke-width:4px;}.cls-6{stroke-dasharray:2.99 2.99;}</style></defs><path class="cls-1" d="M944.08,546.71c-7.63.34-13,.77-18.43.78-49,.15-98,.51-147,.11-11.78-.1-18.84,2.61-26.18,8.73-71,59.07-161.67,86.07-272.95,75-74-7.37-133.26-33.78-180-73.32-7.75-6.55-15.62-9.2-27.82-9.06-46.23.53-92.47.42-138.7.46-8.13,0-16.26-.44-24.67-.68a53.29,53.29,0,0,1-1.57-6.28c-.75-6.69,1.9-15.09-3.06-19.54-3.83-3.45-17.34-1.35-26.07-2.94-4-.74-7-4.35-10.26-6.78-.57-.43-.23-1.46-.24-2.21q-.3-127.84-.75-255.68c0-8.46,6.21-9.81,16.58-9.8,54.49.07,109-.35,163.47-.15,11.39,0,19.07-2.28,26.8-8.3,66.76-52,151.42-78.88,252-78,95.43.83,176.06,27,239.58,76.13,8.63,6.67,17.31,9,29.79,8.87,53.39-.48,106.79-.05,160.16-.76,15.21-.2,19.68,2.9,19.63,13.33q-.54,123.89.52,247.76c.07,9.64-2.45,15.44-18.81,14-9.32-.84-12.68,2.68-12.25,8.81S944.06,539.71,944.08,546.71Zm6.08-165.63c-.09-35.81-.6-71.63,0-107.44.17-10.15-4.12-14-19.56-13.7-40.15.7-80.48-1-120.46.94-31.33,1.54-55.72-2.89-72.38-22-2.46-2.83-6.65-5-10.29-7.28-132.85-83.28-328.95-73.62-443.34,22-7,5.89-14.24,8.26-25.14,8.22-50.62-.17-101.25.37-151.87.09-13.73-.08-17.94,3.26-17.87,12.49q.89,108.58.51,217.16c0,9.59,5.16,12.22,18.39,12.09,50.07-.49,100.15-.14,150.22-.66,12.21-.13,20.17,2.53,27.93,9,121.38,101.82,347.62,101.39,467.78-1,8.24-7,16.86-9.4,29.42-9.34,49,.24,98-.5,146.91,0,16.26.17,20.54-3.79,20.28-14.41C949.83,452,950.24,416.52,950.16,381.08Z" transform="translate(-66.46 -159)"/><path class="cls-2" d="M950.16,381.08c.08,35.44-.33,70.88.55,106.31.26,10.62-4,14.58-20.28,14.41-49-.5-97.94.24-146.91,0-12.56-.06-21.18,2.32-29.42,9.34-120.16,102.35-346.4,102.78-467.78,1-7.76-6.51-15.72-9.17-27.93-9-50.07.52-100.15.17-150.22.66-13.23.13-18.43-2.5-18.39-12.09Q90.2,383,89.27,274.47c-.07-9.23,4.14-12.57,17.87-12.49,50.62.28,101.25-.26,151.87-.09,10.9,0,18.1-2.33,25.14-8.22,114.39-95.67,310.49-105.33,443.34-22,3.64,2.28,7.83,4.45,10.29,7.28,16.66,19.09,41.05,23.52,72.38,22,40-2,80.31-.24,120.46-.94,15.44-.27,19.73,3.55,19.56,13.7C949.56,309.45,950.07,345.27,950.16,381.08Zm-12,.26c-.08-33.18-.64-66.37.06-99.55.21-10.07-3.49-13.85-19.26-13.59-47.31.8-94.66.19-142,.77-13.45.16-22.1-2.88-30.58-10.08C689.05,210.24,613.68,184.51,523,184c-92.66-.52-170,25-228.58,74.92-9.72,8.28-19.59,11.47-34.78,11.31-46.76-.47-93.56.23-140.34,0-12.18-.06-16.4,2.83-16.34,11.14q.69,101.24.43,202.48c0,8.93,4.58,11.8,17.38,11.63,37.42-.52,75,.86,112.24-.78,32.26-1.42,54.22,4.79,77.5,22.05C430,605.38,633.17,599.28,744.58,505.27c10.11-8.53,20.28-12,36.15-11.8,43.46.57,86.95,0,130.43-.09,27.23-.06,27.23-.07,27.19-19.28Q938.24,427.72,938.12,381.34Z" transform="translate(-66.46 -159)"/><path class="cls-1" d="M938.13,381.34q.11,46.38.22,92.76c0,19.21,0,19.22-27.19,19.28-43.48.11-87,.66-130.43.09-15.87-.22-26,3.27-36.15,11.8C633.17,599.28,430,605.38,310.5,516.75c-23.28-17.26-45.24-23.47-77.5-22.05-37.28,1.64-74.82.26-112.24.78-12.8.17-17.41-2.7-17.38-11.63q.33-101.24-.43-202.48c-.06-8.31,4.16-11.2,16.34-11.14,46.78.24,93.58-.46,140.34,0,15.19.16,25.06-3,34.78-11.31C353,209,430.33,183.49,523,184c90.69.5,166.06,26.23,223.37,74.88,8.48,7.2,17.13,10.24,30.58,10.08,47.32-.58,94.67,0,142-.77,15.77-.26,19.47,3.52,19.26,13.59C937.48,315,938,348.16,938.13,381.34ZM612,429.73q30.51-.08,61-.13c8.16,0,15.55-.18,15.66-8,.11-7.54-6.42-8.53-15-8.44-11.55.12-23.19.6-34.6-.26-4.42-.33-8.31-3.9-12.44-6,4.3-2.45,8.12-6.21,13-7,7.27-1.23,15.3-.62,23-.39,11.2.35,15.91-3,15.67-10.72-.45-14.31-.29-28.63-.16-42.95.06-7-.53-12.44-14.6-12.37-12.72.06-16.8,3.64-15.6,11.56,1,6.85-3.58,9.45-13.46,9.2-12.63-.32-25.33-.4-37.93.12-13.4.56-22.84-.79-21.14-12.37,1.1-7.47-6.68-8.11-15.24-8.11-8.91,0-15,1.22-14.68,8.63.42,9.41-.21,18.84.18,28.26.37,8.94-2.7,19.87,3.68,26.12,4.4,4.32,22.46,1.64,34.1,3.19,4.54.61,8.21,4.25,12.28,6.51-4,2.26-7.69,6.09-12,6.47-11.39,1-23,.52-34.59.49-8.3,0-13.54,1.58-13.49,8.32s5.47,8.13,13.71,8.07C570.21,429.75,591.11,429.76,612,429.73ZM190.43,400.12c8.93,1.33,18.71-.14,27.82.89,3.86.43,6.91,4.22,10.34,6.49-3.42,2.21-6.58,6.07-10.3,6.34-12,.89-24.12.59-36.21.47-9-.08-15,1.52-14.62,8.79.31,6.83,6.43,7.73,14.41,7.68,20.88-.16,41.75-.14,62.63-.16,19.78-.05,39.56,0,59.33-.17,8.11-.05,17.37,1,17.48-7.8.11-9.26-9.39-8.55-18.3-8.57-11,0-22.07.51-32.91-.36-3.78-.3-7-4.05-10.43-6.22m-80.53-15.37,248.35,41.92v.08c10.43,0,20.86,0,31.29-.09,40.79-.37,34.58,3,35.64-25,.35-9.3-5.56-11.56-17.73-11.37-26.33.43-52.68.23-79,.29-38.64.08-38.36.07-36.09,26.16.61,7.07,4.42,10.26,14.88,10.1C393.46,434,410.48,434.1,427.49,434.05Zm369-.9v.11c9.88,0,19.76,0,29.64-.08,40.65-.41,34.45,2.79,35.42-25.21.28-8.32-4.29-11.4-16.31-11.21-26.34.4-52.69,0-79,.31-40.93.46-35.6-4.44-36.15,26.83-.13,6.88,4.32,9.47,13.75,9.4C761.32,433.18,778.88,433.2,796.45,433.15ZM427.4,393.83c21.43-.05,42.88.31,64.24-.51,4.3-.16,10.52-4.39,11.86-7.53,2.56-6-3.13-8.65-12.09-8.6q-63.43.3-126.89.3c-8.5,0-13.5,1.78-13.46,8.36s5.4,8.24,13.72,8.18C385.66,393.89,406.53,393.9,427.4,393.83Zm368.26-17.37c-20.31.05-40.62.17-60.92.11-8.91,0-16.67.28-16.44,8.63.22,7.7,7.5,8,15.72,8q60.93-.21,121.84-.33c8.13,0,15.38-.26,15.57-8.06.21-8.59-7.87-8.49-16.5-8.46Q825.29,376.43,795.66,376.46ZM391,374.23c10.36-1.21,25.35-.91,26.44-3.43,4.38-10.11,5.64-21.13,5-31.73-.11-1.75-15.45-3.47-23.95-4.39-6.41-.69-13.13-.11-19.72-.07-8.34.06-17-.53-17.25,8.09-.2,8.43,7.83,8.95,16.56,8.35,15.09-1,18.34,4,15.19,12.88C392.4,366.4,392.14,369,391,374.23Zm69.52.26c10.73-1.75,25.81-1.91,27.06-4.83,4.31-10.06,5-21.14,3.84-31.67-.18-1.66-17-2.74-26.29-3.5-6.46-.53-13.11.11-19.66-.07-9.45-.26-14.26,2.27-14.06,9.14.2,7,6.77,8,14.42,7.33,17.2-1.5,19.69,4.57,16.44,14.1C461.56,367.11,461.46,369.32,460.54,374.49Zm298.3-3.11c11.11.89,24.63,5.49,28.8-4.17a43,43,0,0,0,1-29.84c-.85-2.62-19.23-2.71-29.63-3.62-4.87-.42-9.89,0-14.84,0-7.78,0-14.08.75-14.39,7.77-.32,7.41,5.57,8.58,14.5,8.79,20.41.48,20.36.68,16,13.92A58.87,58.87,0,0,0,758.84,371.38Zm69.09,3.11c11.36-2.54,26.28-3.24,27.86-6.74,4.32-9.62,4.68-20.58,2.62-30.61-.43-2.08-18.08-2.73-27.88-3.54-5.92-.49-12,.08-18,0-8.68-.14-14.77,2.36-12.22,8.5,1.3,3.13,7.13,7.16,11.58,7.59,21,2,21.09,1.64,17.54,15.71C829,367.19,828.8,369,827.93,374.49Z" transform="translate(-66.46 -159)"/><path class="cls-3" d="M104.46,550.22l-.06-25.05c3.44-.58,6.53-1.56,9.64-1.57,45.67-.23,91.34-.57,137-.16,6,0,13.53,3.18,17.8,6.43,58.42,44.35,130.4,70.9,218.31,76.45,110,6.94,202.61-17.84,277.66-72.29,12.67-9.2,24.92-12.84,43.07-12.56,45.6.68,91.24,0,138.43-.07l.07,26.15c-6.35.23-12.82.65-19.29.67-49,.17-98,.45-147,.23-10.56-.05-17.29,2.27-23.8,7.91-40.28,34.88-91,60.34-154.62,71.37-119,20.65-218.45-3.12-298.34-64.93-12.24-9.47-23.73-13.6-42.13-13.22-45.08.93-90.22.48-135.33.59Z" transform="translate(-66.46 -159)"/><rect class="cls-1" x="74.83" y="140.36" width="769.28" height="166.2"/><path class="cls-4" d="M143.27,416.38l16.85-2.28h3.71l14.95,2.28v7.14H143.27Zm.67-93.69h20.9l.11,9.42h-2.16l-18.85-2.28Zm13.51,0H165l1.25,49v51.8h-8.81Zm.54,0h19.78L210,405.13h-5.12l30.47-82.44h9.06L207.07,423.52h-9.62Zm66.8,93.69,18.85-2.28h5.05l20.93,2.28v7.14H224.79ZM237.07,378l.27-55.33H257c-.45,15.46-.45,31.27-.45,47.12v6.59c0,15.77,0,31.58.45,47.12H236.61C237.07,408.06,237,392.25,237.07,378Zm9.66-55.33h22.61v7.14l-20.65,2.28h-2Z" transform="translate(-66.46 -159)"/><path class="cls-4" d="M281.4,329.83v-7.14h45.84v7.14l-21.15,2.28h-3.76Zm24.69,84.27,21.15,2.28v7.14H281.4v-7.14l20.93-2.28Zm-11.65-44.29c0-15.66,0-31.46-.46-47.12H314.6c-.46,15.35-.46,31.16-.46,47.12v6.54c0,15.71,0,31.52.46,47.17H294c.46-15.35.46-31.16.46-47.12Z" transform="translate(-66.46 -159)"/><path class="cls-4" d="M338.3,416.38l16.07-2.28h3.71l18.54,2.28v7.14H338.3ZM347,327.74l9.08,4-17.34-1.83v-7.2h28.65l58.73,80.71v20.8h-8.94Zm4.18-5.05,8.71,7.2v93.63h-8.71Zm49.54,0h38.32v7.14l-15.31,2.28h-3.66l-19.35-2.28Zm16.68,0h8.72V424.2l-8.72-8.72Z" transform="translate(-66.46 -159)"/><path class="cls-4" d="M448.59,329.83v-7.14h45.85v7.14l-21.16,2.28h-3.76Zm24.69,84.27,21.16,2.28v7.14H448.59v-7.14l20.93-2.28Zm-11.65-44.29c0-15.66,0-31.46-.45-47.12h20.61c-.45,15.35-.45,31.16-.45,47.12v6.54c0,15.71,0,31.52.45,47.17H461.18c.45-15.35.45-31.16.45-47.12Z" transform="translate(-66.46 -159)"/><path class="cls-4" d="M582.52,408.75v8.08L572.71,419l4.46-23.17h10.45L587,418.56a64.93,64.93,0,0,1-31.32,7.52c-30,0-52.1-19.68-52.1-53s23.49-53,52.57-53a59.1,59.1,0,0,1,29.55,7.41l.61,22.82H575.88l-4.53-23.28,9.82,2.24v8.83c-7.94-7.28-15.23-9.92-22.3-9.92-18.34,0-33.74,14.57-33.74,44.93s14.29,44.76,32.85,44.76C566.08,417.92,574.64,415.06,582.52,408.75Z" transform="translate(-66.46 -159)"/><path class="cls-4" d="M693,373.11c0,34.18-23,53-47.31,53s-47.4-17.93-47.4-53c0-34.18,23.21-53,47.4-53S693,338.06,693,373.11Zm-47.31,44.76c18.31,0,25.77-20.74,25.77-44.76s-7.46-44.82-25.77-44.82-25.86,20.85-25.86,44.82S627.38,417.87,645.69,417.87Z" transform="translate(-66.46 -159)"/><path class="cls-4" d="M802.13,373.11c0,34.18-23,53-47.31,53s-47.4-17.93-47.4-53c0-34.18,23.21-53,47.4-53S802.13,338.06,802.13,373.11Zm-47.31,44.76c18.31,0,25.77-20.74,25.77-44.76s-7.46-44.82-25.77-44.82S729,349.14,729,373.11,736.51,417.87,754.82,417.87Z" transform="translate(-66.46 -159)"/><path class="cls-4" d="M811.25,329.83v-7.14h45.29v7.14l-20.6,2.28h-3.76Zm24.69,84.27,19.76,2.28v7.14H811.25v-7.14l20.93-2.28Zm-11.65-44.29c0-15.66,0-31.46-.46-47.12h19.83c-.46,15.35-.46,31.16-.46,47.12v9c0,13.21,0,29,.46,44.67H823.83c.46-15.35.46-31.16.46-47.12Zm9.71,18.6,53.43-65.72h10.23l-63.66,76Zm31.19-32.85,36.9,68H880.94L853.27,370Zm1.5,60.82L886,414.1h2.9l19.13,2.28v7.14H866.69Zm2.84-86.55v-7.14H904.6v7.14l-17.16,2.28-3.77.48Z" transform="translate(-66.46 -159)"/><line class="cls-5" x1="98.42" y1="310.63" x2="99.92" y2="310.63"/><line class="cls-6" x1="102.91" y1="310.63" x2="818.49" y2="310.63"/><line class="cls-5" x1="819.98" y1="310.63" x2="821.48" y2="310.63"/></svg>