<svg id="레이어_1" data-name="레이어 1" xmlns="http://www.w3.org/2000/svg" viewBox="0 0 594.18 728.25"><defs><style>.cls-1{fill:#292929;}.cls-2{fill:#b5a796;}.cls-3{fill:#2b2b2b;}.cls-4{fill:#2c2c2c;}.cls-5{fill:#7692aa;}.cls-6{fill:#6a6a8e;}.cls-7{fill:#6b698e;}.cls-8{fill:#ed1b24;}.cls-9{fill:#cc5535;}.cls-10{fill:#4b83fe;}.cls-11{fill:#a5403d;}.cls-12{fill:#bd1931;}.cls-13{fill:#4c61c9;}.cls-14{fill:#b339fe;}.cls-15{fill:#7792ab;}.cls-16{fill:#7792ad;}.cls-17{fill:#a4b6ca;}.cls-18{fill:#c89ba4;}.cls-19{fill:#b91932;}.cls-20{fill:#972fcc;}.cls-21{fill:#b3b6b4;}.cls-22{fill:#becfd7;}.cls-23{fill:#b6c9f4;}.cls-24{fill:#7691aa;}.cls-25{fill:#25c965;}.cls-26{fill:#1dc658;}.cls-27{fill:#c77b93;}.cls-28{fill:#4981f9;}.cls-29{fill:#1dbf54;}.cls-30{fill:#28c15b;}.cls-31{fill:#dadbd5;}.cls-32{fill:#fff;}.cls-33{fill:#f8ab16;}.cls-34{fill:#c9b8ca;}.cls-35{fill:#c77c29;}.cls-36{fill:#f8ab17;}.cls-37{fill:#cdb8ca;}.cls-38{fill:#c37c2b;}.cls-39{fill:#c47e27;}.cls-40{fill:#23c258;}.cls-41{fill:#f9d895;}.cls-42{fill:#ffdc97;}.cls-43{fill:#f33f48;}.cls-44{fill:#bf1930;}.cls-45{fill:#1ac55a;}.cls-46{fill:#1ac754;}.cls-47{fill:#1bc851;}.cls-48{fill:#98d3ac;}.cls-49{fill:#1ac956;}.cls-50{fill:#a6b7c9;}.cls-51{fill:#a3b7c8;}.cls-52{fill:#f03f47;}.cls-53{fill:#f03841;}.cls-54{fill:#4e144f;}.cls-55{fill:#f8b42f;}.cls-56{fill:#5acc81;}.cls-57{fill:#e5a4fa;}.cls-58{fill:#cd7bff;}</style></defs><path class="cls-1" d="M500.25,371.31c5.87-13.68,1.73-28.71,9.68-40.85,5.47,3.72,5.47,3.72,9.89,14.7,6.89-26.81,13.61-51.88,26.32-74.55,6.07,1.24,5.42,4.92,5.28,8.34-1.11,26.27-3.66,52.37-9.91,78a79.93,79.93,0,0,0-1.45,9.15c-.08.65.48,1.37,1.07,2.92,11.15-8.15,17.18-21.9,31.1-27.69,4.52,10.66-5.15,18.29-4.72,28.21,2,.55,4.14,1.49,6.29,1.64,13.09.88,26.2,1.5,39.29,2.38a10.53,10.53,0,0,0,10-4.48c5.54-7.43,11.7-14.45,16.67-22.24a24.71,24.71,0,0,0,3.32-13c-.12-9.11,3.18-16.28,9-23.07Q688.62,268,724.7,225c6.41-7.63,14-11.75,24.13-11.38,7.72.28,15.47-.21,23.18.23,9,.51,13.5,4.79,14.35,13.61,1.42,14.91.21,28.71-10.8,41-13.12,14.65-24.57,30.79-36.69,46.32-2.33,3-4.43,6.18-7.06,9.86,3.33,2.39,6.16,4.24,8.78,6.35,17.91,14.38,16.67,39.48-2.58,51.94-6.72,4.36-13.57,8.51-21.68,13.57,3.68,2.95,6,4.72,8.2,6.58,5.3,4.45,11.41,8.28,15.62,13.6,3.62,4.6,6.66,10.76,7.22,16.5,3.61,36.52-7.14,68.72-31.35,96.25-23.24,26.41-52.47,44.18-84.74,57.17-38.62,15.56-78.8,24-120.39,27.11C473.24,616.53,436,615,399,608c-35.62-6.72-69.51-18.2-99.57-39.08-23.73-16.49-42.28-37.31-51.58-65.19A162.92,162.92,0,0,1,242,479c-2.64-15.86,3.27-28.69,15.06-39.25,13.13-11.77,28.44-19.85,44.41-26.9l15-6.59c-3.29-5.74-5.7-10.86-8.93-15.42-13.73-19.38-7-43.73,12.71-53.24,8.85-4.27,13.2-11.55,17-19.46,6.25-12.93-2.22-25.34-16.39-24.56-3.85.22-7.71.94-11.54.76-5.94-.28-9.3-3.28-9.7-8-.42-4.95,2.06-8.05,6.56-9.7,23.61-8.65,51.37-7.28,66.12,18.52,2.24,3.93,5.55,5.57,9.75,7.27,10.55,4.28,20.83,5.29,32.28,4.15,18-1.77,31,9,35.32,26.79,2.17,9,3.81,18.14,5.77,27.19,1,4.46,2.14,8.88,3.51,14.54Z" transform="translate(-223.76 -10)"/><path class="cls-2" d="M273,707.38c3.88-6.63,10.11-9.28,16.46-10.47,23.11-4.32,46.24-8.84,69.55-11.78a699.06,699.06,0,0,1,86.59-5.2c32,0,64.06-2.1,96.07-1.67,30.05.4,60.13,2.18,90.09,4.69,24.95,2.09,49.79,5.76,74.56,9.51,8.3,1.26,16.28,4.78,24.3,7.56,3.76,1.3,7.06,3.57,6.91,8.25s-3.47,7-7.28,8c-14.59,3.67-29.12,7.88-43.94,10.17-26.68,4.12-53.56,6.27-80.58,7.69-38.92,2-77.8,4.93-116.79,3.93-28.51-.73-57-2.48-85.48-4.21-20.77-1.27-41.63-2.39-62.22-5.19-18.68-2.53-37.11-7-55.55-11.12C280.54,716.39,275.16,714.43,273,707.38Z" transform="translate(-223.76 -10)"/><path class="cls-1" d="M498.74,215.53c-2.29,10.53-3.49,19.77-6.33,28.47-9.92,30.4-37.24,46.91-68.67,41.86-10.69-1.71-19.92-6.68-26.23-15.59-13.23-18.73-32.2-26.86-53.89-30.41-6.47-1.05-13-2-19.37-3.44C296,230,283.61,205.33,295.13,178.68c5.71-13.21,15.55-22.79,26.66-31.44a136.81,136.81,0,0,0,14.48-13.06c17-17.58,37.19-20.29,59.67-13.88,5.91,1.69,11.85,3.37,17.88,4.48a112.94,112.94,0,0,1,37.6,14.54c2.25,1.34,4.66,2.41,8,4.13.95-5.34,1.51-9.87,2.6-14.28,1.74-7.07,2.47-14.86,6.05-20.91,8.35-14.12,21.82-19.17,37.79-16.18,7.93,1.49,14.87.44,22.45-2.32s10.87-8.36,14.07-14.4c2.4-4.53,1.23-9-3-12.41s-8.58-6.6-12.53-10.27c-4.79-4.42-5.83-9.34-3.15-13.3,3.25-4.8,7.93-4.35,12.43-2.51,10.08,4.12,19.46,9.42,26.94,17.59,8.94,9.76,12,21.42,10.72,34.29-.68,6.77,1.19,12.23,4.29,18.44,4.57,9.15,11,14.9,19.39,20.15,14,8.77,19.31,25.77,12.44,40.7-7.74,16.8-16.53,33.19-25.82,49.21-6.94,12-22.07,16.52-35.68,11.62-8.67-3.13-16.82-7.05-26.66-5.89-4.19.49-8.8-2.4-13.19-3.86C505.39,218.05,502.22,216.8,498.74,215.53Z" transform="translate(-223.76 -10)"/><path class="cls-1" d="M626.77,242.33c2.72,1,5.63,1.82,8.39,3,11,4.78,18.09,13.09,21.05,24.63,3.34,13.07-2.78,26-16.27,32.49-13.74,6.57-28.71,9.27-43.87,9-11.89-.24-20.52-7-24.79-18-5-12.95-2.5-25.11,6.53-35.71,2.22-2.6,5-4.71,7.82-7.29l-4.49-14.25c9,1.18,16.63,3.73,23.79,2.7s14-5.63,22.6-9.37C627.22,234.75,627,238.27,626.77,242.33Z" transform="translate(-223.76 -10)"/><path class="cls-3" d="M788,396.81l-19.92-22c5.13-8.5,11.11-17.31,15.95-26.7s8.52-19.35,13.29-30.41c7.28,7.63,13.5,13.73,19.13,20.33,1.41,1.65,1.85,5.21,1.17,7.41-5.73,18.58-15.37,35.14-27.14,50.51C790.11,396.48,789.09,396.47,788,396.81Z" transform="translate(-223.76 -10)"/><path class="cls-4" d="M438.05,59.83c-16.12,5.71-31.08,3.83-45.16-3.71C380.08,49.26,375.51,37.18,375,23.29c-.15-4.37,2.47-6.88,6.15-8.92,11.76-6.56,24.94-5.74,35.8,2.5C428.68,25.77,437.19,42.71,438.05,59.83Z" transform="translate(-223.76 -10)"/><path class="cls-3" d="M681.16,174.83c-2.73-15.09-2.15-29.08,5.44-42,7.29-12.4,18.72-17.81,32.85-18.29,6.41-.23,9.89,3,12.12,8.66a33.42,33.42,0,0,1-9.57,37.9C712,169.69,697.35,174.78,681.16,174.83Z" transform="translate(-223.76 -10)"/><path class="cls-3" d="M279.28,318.71l-19.11,23.76c-10.82-.92-28.49-7.38-36.41-13.49a16.33,16.33,0,0,1,1.81-3.77c4.4-5.26,9.17-10.23,13.32-15.67,2.23-2.92,4.09-5.45,8.25-5.06C252.82,305,273.44,313.77,279.28,318.71Z" transform="translate(-223.76 -10)"/><path class="cls-3" d="M648.76,64.12c15.5,3.48,15.5,3.48,22.51,9L655.65,92.67c-8-2.19-16.14-2.68-23.23-8.2C638,77.57,643.14,71.13,648.76,64.12Z" transform="translate(-223.76 -10)"/><path class="cls-3" d="M274.67,111.41c.05,7.82.72,15.8-4.64,24L248.2,122.67C249.1,115,250,107.3,251.12,98Z" transform="translate(-223.76 -10)"/><path class="cls-5" d="M265.34,503.47c35,18,72.87,24.58,111.46,28.64,38.15,4,76.47,3.64,114.55,1.47C550,530.25,608,521.41,664,502.08c26.76-9.26,52.36-20.78,75.19-42-.53,4.51-.81,6.82-1.08,9.14-5.15,15.41-16.57,24.85-30.3,32.29-17.78,9.62-36.82,16.21-55.92,22.29A130.66,130.66,0,0,0,612,544.47c-44.41,33.64-95.75,49.78-150,57-22.21,3-45,1-67.37-2.21-26.4-4.16-51.13-12.77-73.5-27.64C297,557,276.09,539.31,264.82,512.38,263.46,509.14,259.68,506.14,265.34,503.47Z" transform="translate(-223.76 -10)"/><path class="cls-6" d="M680.23,487c-5.37,2.44-9.66,4.85-14.24,6.39-37.43,12.64-75.82,21-114.9,26.75-49.87,7.29-100,8.68-150.18,6.47-23.42-1-46.68-5.7-70-8.85-2.56-.34-5-1.53-8.16-2.54,1.15-6.67,5.43-10.32,9.9-13.95,13.73-11.15,29.76-17.93,46.17-23.68,27.8-9.74,56.63-15.25,85.77-19.21,1.45-.19,3,.26,4.87.44a37.37,37.37,0,0,1,1.95,5.42c2,10.21,7.68,17.25,17.16,21.82,10.68,5.15,10.45,5.47,9.16,17.84-.46,4.43-1.86,9.19,3.27,14,2.17-2.29,4.47-4.08,5.92-6.4a91.07,91.07,0,0,0,5.75-11.37c2.07-4.65,5.29-6.92,10.51-7.72,20.91-3.2,27.08-10.67,26.92-31.57,0-1.9,0-3.81,0-6.11,7-2.75,13.83-1.64,20.61-.57,4.9.77,6.52,4.42,8.28,8.59,6,14.26,17.7,21,33,20.32a24.5,24.5,0,0,0,18.92-9.82c6.74-8.74,14.1-8.52,23.33-4.39C669,475.46,673,477.61,680.23,487Z" transform="translate(-223.76 -10)"/><path class="cls-7" d="M501.67,380.88c1.91,14,3.82,28,5.75,42.29-2.18,1.19-3.74,2.46-5.5,2.92-10.22,2.7-17.93,9-23.91,17.28-3.48,4.84-7.61,6.65-13.42,7.48-29.79,4.29-59.46,9.42-87.92,19.59-10.51,3.75-20.77,8.31-30.88,13.05a74.6,74.6,0,0,0-29,24.21c-2.85,3.95-5.93,5.66-10.78,4.1-16.18-5.2-32.38-10.32-45.56-21.78-5.87-14.3-1.09-25.24,9.55-35.56,12.92-12.54,27.71-21.72,44-29a30.1,30.1,0,0,1,13.64-2.62c3.64,4.44,6.67,9.65,11.05,13.17,8.62,6.93,18.45,8.62,29.36,4.81,6.41-2.23,13.35-3.15,20.12-4.08,11.6-1.61,22.63-4.14,31.94-12a33,33,0,0,1,12-6.38c13-3.7,23.13-10.38,28.07-23.5a18.45,18.45,0,0,1,17.46-8C486.34,387.6,494.25,385.3,501.67,380.88Z" transform="translate(-223.76 -10)"/><path class="cls-6" d="M394.66,599.28a392.59,392.59,0,0,0,107.66-11.65,334.21,334.21,0,0,0,77.51-29.54c13.73-7.32,25.87-16.66,38.28-25.72,7.9-5.77,16.54-9.33,25.73-12.61,21.37-7.6,42.72-15.58,63.23-25.21,12-5.64,23.2-13.8,31-25.35-3.3,20-12.61,37-25.54,52.37-24.31,28.86-55.52,47.54-90.29,60.63-36.69,13.82-74.6,22.38-113.91,24-13.86.58-27.77,2.41-41.56,1.7C442.58,606.7,418.23,605.92,394.66,599.28Z" transform="translate(-223.76 -10)"/><path class="cls-8" d="M392.34,316.21c2.36,3.38,5.11,6.56,7,10.19,2.8,5.36,5,11,7.44,16.57l2.24-.59c-1-7.79-2-15.58-3-23.18,15.76-7.13,31.19-1.37,35.66,14,3.2,11,4.47,22.59,6.6,33.91.28,6.06-1.23,11.93-7.25,13.87-7.12,2.29-13.78-.08-18.8-6.05a39.65,39.65,0,0,1-4.08-5.49c-.93-1.43-1.87-2.86-3.61-5.51-.54,2.83-.79,4.16-1.05,5.49,2.52,11.83,1.62,22.71-8.58,31-12.66,10.34-25.84,7.24-39,1.41-11.12-4.92-11.07-5-11.87,6.39-.77,10.9-10.4,14.26-21.66,7.55L309.23,378.3c-.9-16.38,7.08-27.31,21.17-34.47q3.78,9.27,7.55,18.56l2.64-.69c2.16-5.8-2.15-10.86-3.26-16.29C344.53,320.34,366.94,308.44,392.34,316.21Z" transform="translate(-223.76 -10)"/><path class="cls-9" d="M587.4,462.23c-3.69-6-3.1-12.05-.24-18.14,26.51-31.53,56-59.84,89.33-84.19a10.9,10.9,0,0,1,6.41-2.56,5.06,5.06,0,0,1,2.76,2.37c3.19,7.4,7,14.53,10.54,21.74,3.4,6.85,2.62,11.53-3.86,16.42A315,315,0,0,0,667,419.22c-12,11.19-12.21,10.93-25.06.68,11.69,9.56,11.56,9.45,2,21.09-6.13,7.44-13,14.19-19.76,21C613.6,472.61,601.66,472.17,587.4,462.23Z" transform="translate(-223.76 -10)"/><path class="cls-5" d="M680.3,425.21c7.11-5.91,14.36-11.66,21.26-17.79,4.82-4.28,9.36-4.69,14.5-.84,5.52,4.14,11.74,7.54,16.61,12.32,9.53,9.34,10.32,20.18,3.26,31.47a38.79,38.79,0,0,1-4.94,6.39c-11.46,11.78-25.23,20-40.43,26.29-6.81-5.07-12.9-10.4-19.74-14.46s-14.47-6.87-22.3-10.48c1.88-5.94,6.09-9.11,10.44-12.17,7.94-4.73,15.47-1.75,23.14,1,4.1,1.48,9.38,4.57,12.29-.7,2.76-5-2.45-8-5.56-11.22S680.24,431,680.3,425.21Z" transform="translate(-223.76 -10)"/><path class="cls-6" d="M610.84,402.2c-7.39,8.33-14.89,16.57-22.12,25-3.21,3.76-5.68,8.14-8.85,11.94-2.07,2.48-4.6,6.06-7.24,6.36-15.18,1.72-30.22,2-39.23-14-.19-.33-.29-.71-1-2.39,7.09-12.95,15.81-25.92,24.63-38.83,13.2-9,40.07-6.45,51,4.85A10.92,10.92,0,0,1,610.84,402.2Z" transform="translate(-223.76 -10)"/><path class="cls-10" d="M745.21,220.91l29.85.42c3.08,5.88,1.21,11.39-2.32,16-12.13,15.77-24.53,31.33-36.37,47.31-4.35,5.86-9.42,8.92-16.75,7.68-5,5.3-9.72,10.85-15,15.81-2.25,2.1-5.66,4.11-8.57,4.14-9.17.11-18.35-.75-27.52-1.23-1.58-7.16,5.24-9.41,8.49-13.25,16.08-19,30.57-39.44,49-56.33,7.24,5,12.79,1.26,19.26-3.1-6.51-.52-10.05,12-17,2.08C729.73,230.31,738.07,226.14,745.21,220.91Z" transform="translate(-223.76 -10)"/><path class="cls-11" d="M587.4,462.23c3,.55,6.07,1,9.09,1.65a26.76,26.76,0,0,0,23.78-6.13c9.57-8.27,18.8-17,25.59-28.71-5.53-6.3-13.2-11-14.74-21,6.5.24,9.68,4.78,13.44,8.23,8.41,7.71,9.56,7.57,18.08-.17q3.87-3.51,7.82-6.93c5.49-4.78,11.07-9.46,16.65-14.13,7-5.89,7.45-7.3,3.76-15.67-2.78-6.32-5.52-12.67-8.28-19,6-6.61,11.66-2.18,14.94,2.1,6.09,7.94,11.82,8.12,19.59,3.05,6.76-4.41,13.81-8.31,18.25-15.39,1.76-2.81,4-4.61,7.51-3.94,4.56,14.59,2,22.31-10.14,30.81-14.84,10.39-30.12,20.23-44.4,31.34-21.31,16.59-41.09,34.94-58.28,55.9C616.59,480.63,597.84,479.78,587.4,462.23Z" transform="translate(-223.76 -10)"/><path class="cls-12" d="M332.31,415.83c19,1.43,18.67-12.65,19.22-26.2,2.88.59,4.69.67,6.27,1.34,6.66,2.8,13.09,6.29,19.92,8.59,12.56,4.24,22.93.73,29.45-10.78,3.28-5.77,4.26-12.84,6.28-19.33,2.3,10.82,5.66,21.55,6.62,32.49,1,11.51-4.3,17.72-15.09,21.73-2.16.81-4.36,1.54-6.59,2.15-16.16,4.5-25.27.92-34.11-13.32-2.12-3.42-4.33-6.78-8.49-9.2,1.49,5,2.59,10.24,4.6,15.07,1.86,4.47,4.68,8.53,7.1,12.81-11.12,5.1-18.76,4.55-25.64-2.48C338.15,424.92,335.45,420.15,332.31,415.83Z" transform="translate(-223.76 -10)"/><path class="cls-13" d="M719.62,292.31c16.83-14.3,27.85-33.43,41.49-50.36,5.17-6.42,12.79-11.42,13.95-20.62,7.34,11.1,6.82,25.83-2,37.44-13.74,18.06-27.84,35.85-41.79,53.75-2.13,2.73-3.86,6-6.54,8-2.89,2.16-6.59,4.12-10.08,4.41-6.83.55-9.48-4.65-5.79-10.64,2.42-3.92,5.65-7.39,7.74-11.46C718.22,299.65,718.65,295.84,719.62,292.31Z" transform="translate(-223.76 -10)"/><path class="cls-14" d="M480.93,469.1c-4-6.47-2.42-11.81,1.9-17.9,8-11.3,18.05-16.93,32.06-16.77,10.53.12,17.63,4.1,21.57,13.8,3.32,19.19-7.91,32.68-27,31.27C499.23,478.75,488.73,477.23,480.93,469.1Z" transform="translate(-223.76 -10)"/><path class="cls-15" d="M327.56,422.88c-3.62,2.65-6.94,5.95-10.92,7.84-15,7.13-29.26,15.13-41.36,26.81-7.55,7.29-12.8,15.16-12.85,26,0,2.17-1.31,4.33-2,6.5-14.63-13.27-15.4-26.69-2.08-40.91s30.24-22.38,47.57-30.06c4.53-2,9.28-3.49,14.85-5.56C323.19,416.85,325.38,419.86,327.56,422.88Z" transform="translate(-223.76 -10)"/><path class="cls-9" d="M742.88,346.15c-1.26,9.61-7,15.66-15.18,20.29-6.64,3.78-12.77,8.44-19.25,12.52-2.13,1.35-4.64,2.12-7.42,3.35-5-8.85-5.91-20.54-18.44-22l-.41-.54c-.48-1.43-1.13-3.08.42-4.07,15.66-10,29.62-24.19,50.75-21A16.75,16.75,0,0,1,742.88,346.15Z" transform="translate(-223.76 -10)"/><path class="cls-16" d="M610.84,402.2c-16.43-10.72-34.68-13.23-53.77-11.88,4.48-11.7,4.59-12.16,16.48-11.67,15.76.65,31.51,1.91,47.25,3.08,2.6.2,5.15,1.25,8.33,2.07-1,5.06-5,6.77-8,9.31C617.55,396,614.24,399.16,610.84,402.2Z" transform="translate(-223.76 -10)"/><path class="cls-17" d="M680.3,425.21c10.48.36,16.37,7.84,22.38,14.82a12.1,12.1,0,0,1,1.67,14.1c-2.79,5.05-8.18,3.84-12.51,2.69-6.3-1.68-12.32-4.38-18.52-6.48-4.74-1.6-9.57-2.94-14.36-4.4Z" transform="translate(-223.76 -10)"/><path class="cls-18" d="M733.35,334.76c-1,.56-2,1.58-3,1.6-19.68.42-33.62,12.59-48.22,23.43-15.57,12.33-31.78,24-46.54,37.19s-28.14,28.17-42.2,42.27a57.53,57.53,0,0,1-6.28,4.84c2-3.64,3.28-7.85,6-10.83,33-36.76,69.24-69.77,111.84-95.34C714.13,332.41,723.25,330.14,733.35,334.76Z" transform="translate(-223.76 -10)"/><path class="cls-19" d="M418.11,369.47c3,1.51,5.88,3.41,9,4.47,10.86,3.63,13.15,2.79,21.09-6.8,1.17,3.23,2.71,6.38,3.46,9.71,4.1,18.08-2.46,28.29-20.82,32.8Q424.49,389.55,418.11,369.47Z" transform="translate(-223.76 -10)"/><path class="cls-20" d="M480.93,469.1c9.18,4.41,18.93,5.16,28.93,4.76,14.22-.57,21.27-6.1,25.15-20.11.51-1.84,1-3.68,1.45-5.52,1.59,2.59,3.58,5,4.71,7.79,5.65,13.81-1.6,26.41-16.27,29.22-6.07,1.17-12,3.24-17.14,4.68-4.14-2.9-8.76-5.87-13.08-9.24C490,477,485.5,473,480.93,469.1Z" transform="translate(-223.76 -10)"/><path class="cls-21" d="M658.9,336.74a32.43,32.43,0,0,1,25.34,1.68c-1.46,2.25-2.25,4.44-3.8,5.69-11.73,9.44-23.63,18.67-35.45,28-4.8,3.78-9.67,6.6-15.46,1.86A158.25,158.25,0,0,0,658.9,336.74Z" transform="translate(-223.76 -10)"/><path class="cls-22" d="M265.34,503.47a124.32,124.32,0,0,0,46.54,59.76c3.4,2.37,6.2,5.58,9.28,8.41-.69.25-1.62.92-2,.69-29.09-16.3-52.39-37.92-64-70.15-.52-1.42-.85-2.91-1.61-5.58C259.05,497.3,262,500.84,265.34,503.47Z" transform="translate(-223.76 -10)"/><path class="cls-23" d="M726.59,244.25c-6.23,6.73-12.66,13.29-18.64,20.24-13.27,15.41-26.32,31-39.45,46.54l-5.5-.31c1.84-2.74,2.89-4.68,4.28-6.32q30.18-35.77,60.47-71.44c4.7-5.5,9.08-11.75,17.46-12.05l-14,18.66C733.48,244.88,730.39,244.92,726.59,244.25Z" transform="translate(-223.76 -10)"/><path class="cls-24" d="M501.67,380.88c-1.31,11.24-1.5,11.24-12.11,11.8-9.83.51-19.63,1.44-29.44,2.18.17-3.39.33-6.78.51-10.34,2.67-1.06,4.71-2.4,6.87-2.64q14.34-1.58,28.76-2.54C498,379.22,499.87,380.34,501.67,380.88Z" transform="translate(-223.76 -10)"/><path class="cls-25" d="M526.1,380.05c-2.49-30.31,8.63-55.56,15.42-81.7C542.87,315.8,533.38,365.65,526.1,380.05Z" transform="translate(-223.76 -10)"/><path class="cls-26" d="M364.75,300.89c-3,1.89-5.37,3.88-8.06,4.87-4.55,1.68-8.64.71-10-4.57-3-11.51-11.69-14.32-21.91-14.9-4.48-.26-9,0-13.47-.73C328.41,278.86,351.38,278.48,364.75,300.89Z" transform="translate(-223.76 -10)"/><path class="cls-27" d="M392.34,316.21c-10.73,0-21.14,1-31.23,5.4-8.89,3.86-16,9-19.91,18.15-.88,2.06-2.56,3.78-3.87,5.65,0-16.43,4.87-23.91,19.62-30.06,2.12-.88,4.38-1.47,6.43-2.47C373.77,307.77,383.38,309.05,392.34,316.21Z" transform="translate(-223.76 -10)"/><path class="cls-28" d="M652.07,325.93c3.68-3,5.75-6.07,8-6.19,10.65-.57,21.35-.37,32-.32a4.18,4.18,0,0,1,3.06,1.37c1.2,1.76,3.14,4.34,2.59,5.67-.87,2.06-3.72,4.91-5.45,4.74C679.63,329.93,667.05,328,652.07,325.93Z" transform="translate(-223.76 -10)"/><path class="cls-29" d="M514.46,361.75c5.34,19.82,6.28,40.22,8.18,62.42C512.2,414.3,508.28,381.52,514.46,361.75Z" transform="translate(-223.76 -10)"/><path class="cls-30" d="M530.49,415.46c-3.15-4.26-3.17-8,0-12.43,2.62-3.62,3.7-8.33,6.27-12,5.38-7.66,11.29-15,18.12-23.87C555.33,378.64,543,401.88,530.49,415.46Z" transform="translate(-223.76 -10)"/><path class="cls-31" d="M658.9,336.74c.8,1.08,2.5,2.84,2.28,3.12-8.3,10.82-16.67,21.6-25.36,32.1-1.18,1.42-4.15,1.37-6.29,2Z" transform="translate(-223.76 -10)"/><path class="cls-27" d="M330.4,343.83c-.83,1.71-1.2,4.18-2.57,5-11.22,6.74-15.49,17.7-18.6,29.47-3.65-16.3,1.77-28.31,16.08-35C326.64,342.7,328.69,343.62,330.4,343.83Z" transform="translate(-223.76 -10)"/><path class="cls-32" d="M438.87,141.67,458.23,153c-.12,12.74-3.77,24.31,2.19,35.36s16.64,14.17,27.65,17c3.2,12.09,1.88,23.28-2.59,34.27-11,23.43-33.53,35.32-58.8,30.72a39.08,39.08,0,0,1-23.91-14.18c-14.42-17.46-32.88-28.31-55.56-31.67-8.74-1.3-17.52-2.6-26-5.28-11.81-3.72-19.41-11.26-21.63-23.72-1.32-9.59,3.05-17.37,8.62-24.32,5-6.19,10.9-11.59,16.23-17.14,1.81,1.26,2.75,1.56,2.83,2,3.33,18.65,10.47,26.57,29.65,30.08,10.14,1.86,20.66,1.69,31,2.43,12.6,1.51,24.11-2.43,35.45-7.12,13.8-5.71,18-14.78,14.08-29.42C436.5,148.53,432.06,144.23,438.87,141.67Z" transform="translate(-223.76 -10)"/><path class="cls-33" d="M466.55,158.25c1.52-12.83,2.58-25.73,4.78-38.44.78-4.49,4.36-8.5,6.66-12.72,7.06-.85,13-6.09,20.51-5.24,4,.45,8.14.22,9.47,5.28q-1.87,10.37-3.76,20.73l1.7.55,9.54-18.7c22.14-15.52,45.08-10.28,60.08,13.7-.92,5.61-1.63,11.26-2.81,16.82-.91,4.33-2.41,8.54-3.64,12.81l2.08.93q7.05-10.51,14.14-21.05c9.09,3.15,13.86,9.28,17.72,15.73a15.81,15.81,0,0,1,.44,16.45c-5.6,10-11,20.18-16.42,30.28-4.74,4.36-9.48,9.8-16.71,6.74-7.93-3.36-10.69-10.21-9.64-18.65a6,6,0,0,0-1-4.36l-4.79,2.47C547,193.36,536,197.5,522.7,193.33c-12.74-4-19.83-14-23.63-26.41-.83-2.74-.12-6.17-4.4-8.18-6.92,4.12-10.86,16.46-22.38,11.35C467.74,168.08,466.26,163.28,466.55,158.25Z" transform="translate(-223.76 -10)"/><path class="cls-34" d="M299.58,195.49c9.48,13.78,23.16,19.26,39.27,21.4a161.54,161.54,0,0,1,32.47,7.93c10.5,3.71,19.94,9.49,27.25,18.75,22.56,28.57,58.07,28.91,82.36,1.27,1.52-1.73,3-3.48,4.55-5.22-4.3,21.69-27.55,45.3-62,38.55-8.28-1.62-15.32-5.77-20.14-12.64-14.37-20.49-35.31-29-58.8-33.11-8-1.41-16.07-2.44-23.81-4.67-13.74-3.95-21.05-13.63-22.2-27.85C298.44,198.46,299.22,197,299.58,195.49Z" transform="translate(-223.76 -10)"/><path class="cls-35" d="M466.55,158.25c11.78,12.33,19.45,9.55,30.69-11.32,3.08,7.89,5.93,15.7,9.15,23.36,6.48,15.37,23.11,24.82,42,13.65,2-1.15,4.31-1.59,6.48-2.36-3.37,7.3-6.28,14.86-10.23,21.84-4.31,7.62-11.44,11.22-20.31,10.64-11.25-.74-20.72-5.57-28.33-13.69-4.39-4.69-5.89-10.61-4.71-17.14a113.09,113.09,0,0,0,2.08-19.29,60.16,60.16,0,0,0-10.64,30.44c-10.68-2.22-16.9-7.56-17.68-16.86C464.51,171.18,466,164.68,466.55,158.25Z" transform="translate(-223.76 -10)"/><path class="cls-36" d="M341.36,170.16,337.22,165c-.88-18.18,1.26-21.64,18.91-28.61,6.37-2.52,10.21-9.27,17.52-10,13.51-2,26-.6,35.2,11.07,7.26,18.4-1.21,32.78-22.3,37.47A70.24,70.24,0,0,1,341.36,170.16Z" transform="translate(-223.76 -10)"/><path class="cls-37" d="M438.87,141.67c4.5,6.46,7.43,13.27,7.18,21.49-.28,9.41-3.9,16.75-12.25,20.73-14.61,7-29.93,9.57-45.88,4.67,4.42-1.19,8.87-2.26,13.24-3.6,22.41-6.85,29.86-23.54,20-44.67-.64-1.36-1.26-2.73-2.65-5.72A36.91,36.91,0,0,1,438.87,141.67Z" transform="translate(-223.76 -10)"/><path class="cls-38" d="M341.36,170.16c13.39,1.51,26.62,3.25,40.22.12,19.09-4.4,29-15.6,27.27-32.8,2.2,2.63,4.86,5,6.52,8,5.47,9.73,3.28,20-5.53,26.78C393.84,184.49,355.27,184.41,341.36,170.16Z" transform="translate(-223.76 -10)"/><path class="cls-39" d="M559.65,179.11a17.1,17.1,0,0,1,2.4,3.4c5.61,14.67,9.76,16.84,25,12.87-2.35,4.84-4.36,9.88-7.13,14.47-8.74,14.47-21,17.12-36.76,7.68A108.56,108.56,0,0,0,559.65,179.11Z" transform="translate(-223.76 -10)"/><path class="cls-40" d="M536.66,48.7c18.21,5.86,29.77,21,29.65,37.1,0,5.13-3,7.82-8.23,6.51-3.89-1-7.5-3-11.09-4.58C552.2,68.11,552.2,68.11,536.66,48.7Z" transform="translate(-223.76 -10)"/><path class="cls-41" d="M373.65,126.41c-1.63,3-3.5,5.79-4.82,8.86-2.69,6.28-7,9.44-14.08,9.32-11.71-.19-13.21,1.31-15.51,12.82-.52,2.58-1.34,5.09-2,7.63-4.19-7-3.23-13.87,1-20.46C346.49,131.67,357.6,124.2,373.65,126.41Z" transform="translate(-223.76 -10)"/><path class="cls-42" d="M575.53,123.41a61,61,0,0,0-27.93-17.35c-8.89-2.72-17.26-3-25.64,1.39a42.76,42.76,0,0,1-6.51,2.26c9.65-13.25,17.28-15.92,32.43-11.3,2.93.89,5.88,1.74,8.75,2.79C567.08,105.05,574.25,111.73,575.53,123.41Z" transform="translate(-223.76 -10)"/><path class="cls-42" d="M508,107.13a35,35,0,0,0-21.35.1c-2.58.85-5.73,0-8.63-.14,9.09-9.41,19.82-10.31,32.5-6.25Z" transform="translate(-223.76 -10)"/><path class="cls-43" d="M619.87,299.92c-6.74,1.47-13.4,3.54-20.21,4.27-9.74,1.05-16.2-4.35-20.1-15.48-3.33-9.47-.71-18.15,7.81-24.39l5.51,8.58,12.9-6.82,9.51,4.79,6.53-9.6,11.93,3.92c9.56,7.21,9.3,17.93.26,26.18C629.72,295.29,624.43,296.85,619.87,299.92Z" transform="translate(-223.76 -10)"/><path class="cls-44" d="M619.87,299.92c1.67-2.07,3.06-4.48,5.07-6.15,9.2-7.66,12.39-17,8.81-28.58,1.31-3,2.63-6.07,4.11-9.51,9.94,5.53,12.06,14.55,11.47,23.83s-7.42,14.88-16,17.68C629,298.59,624.36,299,619.87,299.92Z" transform="translate(-223.76 -10)"/><path class="cls-45" d="M627.06,254.92c-5.42-.56-10.06-.42-14.79,3.52-3.15,2.63-9.35,1.6-15.21,2.34-6.58-2.52-3.93-8.79-4.47-14.74l25.08-1.37,10.49,7.57Z" transform="translate(-223.76 -10)"/><path class="cls-46" d="M791.13,383.78l-11.75-9.44,20.15-40.13,11.88,8.66C806.61,357.24,799.81,369.87,791.13,383.78Z" transform="translate(-223.76 -10)"/><path class="cls-47" d="M383.35,21.63c21.16-9.23,40.35,2.19,43.71,26.76l-12.8-5.15-1.16,1.1,7.14,7.5c-13.72,4.86-32-7.08-34.46-22.47C385.36,26.67,385.87,23.67,383.35,21.63Z" transform="translate(-223.76 -10)"/><path class="cls-48" d="M383.35,21.63c1.42,1.67,3.64,3.14,4.14,5.05,4.41,17,15.84,24.58,32.75,25.16a15.39,15.39,0,0,1,1.82,1.36c.24.22.24.69.35,1C400.42,59.47,381.79,43.91,383.35,21.63Z" transform="translate(-223.76 -10)"/><path class="cls-47" d="M724,126c5,10.36,2.7,19.26-5.07,27.32-6.92,7.17-15.09,11.39-26.49,12.62l7.6-13.72-1.2-1.14-9.11,7.69C685.61,139.45,709,119.24,724,126Z" transform="translate(-223.76 -10)"/><path class="cls-48" d="M724,126c-1.52.24-3,.43-4.55.72-17.8,3.36-27.31,14.42-29.72,32.05-.84-.47-2.37-.87-2.42-1.42-1.58-16.72,11.88-33.48,28.22-35.28C719.11,121.62,722.56,121.61,724,126Z" transform="translate(-223.76 -10)"/><path class="cls-49" d="M238.06,327.68l9.56-13.93,16.26,6.49C259.85,336.76,253.86,336.43,238.06,327.68Z" transform="translate(-223.76 -10)"/><path class="cls-50" d="M395.31,578.17c-17.82.51-33.66-1.89-48.21-10a34.49,34.49,0,0,1-9.16-6.84c-5.31-6-2.95-11.89,5-13a42.4,42.4,0,0,1,9.22-.24q32.15,2.63,64.28,5.49a72.6,72.6,0,0,1,7.93,1.56c3.92.8,8.46,2.17,8.2,6.58-.19,3.23-2.73,7.31-5.48,9.21C417.19,577.8,405.69,579,395.31,578.17Z" transform="translate(-223.76 -10)"/><path class="cls-51" d="M462.6,555c.76,0,1.53-.06,2.29,0,4.14.35,9.29-.1,9.9,5.46.57,5.29-3.57,8.4-8.09,9.79-6.08,1.87-12.16,1.56-17-3.5-3.63-3.8-3.1-8.19,1.69-10.1,3.44-1.38,7.38-1.5,11.1-2.18Z" transform="translate(-223.76 -10)"/><path class="cls-52" d="M361.5,337.56c5.64-.2,10.94,6.66,11.57,15,.41,5.42-4.08,10.16-9.9,10.44-4.78.24-11-7.92-11.65-15.18C351.06,342.32,355.49,337.78,361.5,337.56Z" transform="translate(-223.76 -10)"/><path class="cls-53" d="M381.93,377.91c-4.68,3.51-9.12,6.47-14.1,3.32A6.79,6.79,0,0,1,366.38,371c2.15-2.55,6.43-5.12,9.4-4.75C381.32,366.94,381.69,372.32,381.93,377.91Z" transform="translate(-223.76 -10)"/><path class="cls-54" d="M726.59,244.25l4.58-4.68c3.08-2.84,6.1-5.75,9.27-8.5,6.22-5.41,11-5.95,19.67-2.43-3.36,12.7-14.38,21.33-26.35,20C731.24,248.35,729,245.77,726.59,244.25Z" transform="translate(-223.76 -10)"/><path class="cls-55" d="M542.77,123.26c-2.11,5.76-3.28,10.77-5.69,15.09-2.91,5.21-12.21,3.72-15.46-2.1-2.23-4-1-10.77,2.78-15.11,3.51-4,9-5.53,13.59-3C540,119.26,541.36,121.69,542.77,123.26Z" transform="translate(-223.76 -10)"/><path class="cls-56" d="M256.55,108.09s1.08,10.84,0,10.84,10.84,8.67,10.84,8.67l2.16-13Z" transform="translate(-223.76 -10)"/><polygon class="cls-56" points="426.34 62.31 416.58 70.98 428.5 77.49 440.43 63.39 426.34 62.31"/><path class="cls-57" d="M477.71,461.52s6.68-19.07,21.09-24.21,25.79-2.12,28.95.3c0,0-20.08.17-27.82,3.54S477.71,461.52,477.71,461.52Z" transform="translate(-223.76 -10)"/><path class="cls-55" d="M527.58,152.79c-1.57,5.05-2.44,9.43-4.23,13.21-2.17,4.56-9.08,3.26-11.49-1.84-1.66-3.5-.74-9.42,2.06-13.22,2.61-3.55,6.66-4.84,10.11-2.63C525.55,149.29,526.54,151.42,527.58,152.79Z" transform="translate(-223.76 -10)"/><path class="cls-58" d="M521.4,456.31s-5.61,3.34-4.28,7.4,8.16.33,8.16.33,5.16-4.7,4.28-7.4S521.4,456.31,521.4,456.31Z" transform="translate(-223.76 -10)"/><path class="cls-58" d="M509.2,462.36s-2.59,1.86-1.68,4.63,4.07.71,4.07.71,2.28-2.79,1.68-4.64S509.2,462.36,509.2,462.36Z" transform="translate(-223.76 -10)"/><path class="cls-11" d="M659.85,390s12,16.59,11.43,19.67,8.08-5.58,8.08-5.58l-14.09-15.18s-4.34-3.25-5.42-3.25S659.85,390,659.85,390Z" transform="translate(-223.76 -10)"/></svg>